<?xml version="1.0" encoding="utf-8"?>
<!-- Generator: Adobe Illustrator 17.0.0, SVG Export Plug-In . SVG Version: 6.00 Build 0)  -->
<!DOCTYPE svg PUBLIC "-//W3C//DTD SVG 1.1//EN" "http://www.w3.org/Graphics/SVG/1.1/DTD/svg11.dtd">
<svg version="1.1" id="Capa_1" xmlns="http://www.w3.org/2000/svg" xmlns:xlink="http://www.w3.org/1999/xlink" x="0px" y="0px"
	 width="612px" height="792px" viewBox="0 0 612 792" enable-background="new 0 0 612 792" xml:space="preserve">
<g>
	<path fill="#F6C300" d="M542.116,373.845c8.469,3.618,19.405,6.169,32.851,7.653c6.169,0.523,12.107,0.753,17.983,0.753
		c6.817,0,13.216-0.376,19.05-1.129c-7.34,6.88-16.791,12.839-28.209,17.921c-11.543,5.102-26.39,7.632-44.708,7.632
		c-8.385,31.325-23.922,59.471-46.631,84.229c-22.626,24.842-49.559,45.356-80.758,61.541s-65.472,27.435-103.007,33.813
		c-21.12,3.806-42.219,5.688-63.423,5.688c-15.997,0-32.056-1.15-48.032-3.429c-37.033-4.809-72.603-16.101-107.022-33.813
		C55.811,537.034,25.762,511.752,0,478.922c14.554,12.965,31.534,23.023,50.876,30.007c19.343,6.963,39.438,10.518,60.307,10.518
		c20.89,0,41.425-3.827,61.562-11.292c20.074-7.486,38.142-19.175,54.243-34.963c-3.053,0.481-6.106,0.753-9.222,0.753
		c-5.834,0-11.166-1.025-15.976-3.053c-7.674-3.053-12.965-7.214-15.83-12.421c-2.969-5.207-2.969-10.957,0-17.21
		c2.865-6.231,10.309-11.752,22.312-16.561c-4.099,0.439-8.093,0.711-11.836,0.711c-5.918,0-11.376-0.502-16.373-1.464
		c-8.49-1.568-15.767-4.182-21.998-7.842c-6.336-3.743-11.438-7.737-15.537-12.066c-4.057-4.349-7.507-8.971-10.33-13.801
		c5.144-4.579,10.832-8.072,17.21-10.435c6.378-2.426,14.763-3.931,25.198-4.412c-23.378-5.081-40.086-12.672-49.998-22.542
		c-9.933-9.933-16.248-21.371-18.715-34.357c6.901-1.066,13.738-2.258,20.785-3.638c6.963-1.443,12.547-1.589,16.645-0.606
		c-19.928-9.933-33.75-21.517-41.696-34.754c-6.838-11.689-10.288-22.688-10.288-32.872c0-1.276,0.125-2.656,0.397-4.203
		c35.904,12.505,66.141,23.985,90.691,34.378c24.612,10.476,46.443,20.66,65.535,30.634c7.382,2.969,14.721,7.549,22.166,13.697
		l24.068,20.681c5.123-13.55,10.895-26.954,17.502-40.337c6.712-13.404,13.759-26.201,21.266-38.413
		c7.507-12.191,15.934-23.441,25.365-33.625c9.431-10.142,20.158-18.506,32.077-25.198c-0.481,5.813-3.492,11.606-9.117,17.189
		c6.901-5.813,14.324-10.518,22.312-14.157c8.093-3.555,16.561-5.918,25.428-7.214c-1.025,5.855-5.186,10.665-12.63,14.324
		c-7.382,3.701-13.822,6.566-19.447,8.573c2.007-0.481,6.064-1.819,12.003-3.952c6.001-2.175,12.379-4.182,19.134-5.918
		c6.817-1.798,12.86-3.011,18.381-3.429c5.437-0.523,8.72,0.439,9.703,3.032c1.506,3.053,0.627,5.667-2.656,7.821
		c-3.283,2.175-7.34,3.973-12.066,5.583c-4.642,1.506-9.431,2.739-14.073,3.806c-4.747,1.046-7.842,1.798-9.347,2.258l-14.157,4.956
		c2.781-0.272,5.604-0.376,8.385-0.376c11.689,0,23.211,1.757,34.378,5.332c13.78,4.349,26.39,10.978,37.849,19.928
		c11.417,8.845,21.517,19.322,30.133,31.304c8.657,11.982,15.035,24.821,19.113,38.56l1.547,6.127
		c0.439,2.028,1.004,4.287,1.506,6.817c5.102,1.589,11.187,2.509,18.381,2.907c7.11,0.355,14.157,0,21.204-1.15
		c6.942-1.129,13.32-2.572,19.008-4.37c5.771-1.777,10.33-3.45,13.613-4.956c-4.057,9.954-11.898,18.276-23.504,25.009
		C573.838,368.931,559.367,372.799,542.116,373.845z"/>
</g>
</svg>
