<?xml version="1.0" encoding="utf-8"?>
<!-- Generator: Adobe Illustrator 17.0.0, SVG Export Plug-In . SVG Version: 6.00 Build 0)  -->
<!DOCTYPE svg PUBLIC "-//W3C//DTD SVG 1.1//EN" "http://www.w3.org/Graphics/SVG/1.1/DTD/svg11.dtd">
<svg version="1.1" id="Capa_1" xmlns="http://www.w3.org/2000/svg" xmlns:xlink="http://www.w3.org/1999/xlink" x="0px" y="0px"
	 width="452.629px" height="452.629px" viewBox="0 0 452.629 452.629" enable-background="new 0 0 452.629 452.629"
	 xml:space="preserve">
<g>
	<g id="Layer_3_18_">
		<path fill="#FED136" d="M452.629,309.368l-7.328-23.138c-0.539,0.17-54.85,17.158-135.373,24.276
			c-17.906,1.582-38.021,2.728-59.783,2.99c40.131-5.183,73.787-23.103,101.436-52.812c64.445,0.913,87.961-18.331,93.434-28.842
			c0.656-1.26,2.219-5.608,2.219-6.587c-1.621-0.027-16.613,6.111-34.449,3.876c-13.018-1.629-26.809-7.106-40.863-15.358
			c17.092-15.02,26.635-34.01,31.713-43.991l7.387-17.21c0,0-37.949,1.541-93.072-31.031
			c-24.389-14.414-48.362-27.021-68.649-31.804c-5.087-7.113-9.897-14.118-14.37-20.901
			c-29.249-44.36-117.857-82.308-175.452,24.311c0,0-23.269,9.95-33.051,14.038v2.2c8.021,5.856,16.079,11.667,24.025,17.622
			c-7.866,4.873-15.656,9.872-23.479,14.819c0.123,0.722,0.246,1.444,0.368,2.169c9.52,4.744,19.072,9.424,28.514,14.313
			c0.507,0.262,1.023,0.67,1.481,1.151c3.862,21.19,11.319,41.361,21.813,60.654c25.813,47.464,64.545,78.349,117.406,90.95
			c0.661,0.158,1.287,0.471,1.676,0.615c-0.043,0.227-0.084,0.451-0.126,0.676c-57.354-3.232-121.912-13.555-186.441-37.316
			l-8.387,22.775c19.712,7.259,39.414,13.297,58.921,18.311C34.473,331.484,4.631,354.533,0,358.15l14.939,19.128
			C61.191,339.064,99.05,324.46,99.05,324.46c50.65,9.936,99.087,13.371,141.804,13.371c26.148,0,50.156-1.285,71.217-3.146
			c22.334-1.975,42.643-4.663,60.451-7.553c-5.623,8.867-15.676,20.224-33.404,29.94c-13.979,7.663-30.52,9.265-48.035,10.961
			c-28.001,2.711-59.739,5.784-80.983,36.984l20.062,13.661c12.839-18.858,31.366-23.026,52.952-25.438l-13.364,22.89l20.96,12.236
			l22.432-38.42c12.785-1.87,25.539-4.956,37.645-11.591c35.488-19.453,47.369-45.611,50.943-56.523
			C432.809,315.572,451.314,309.784,452.629,309.368z M113.256,121.925c-8.65-0.052-15.607-6.991-15.665-15.625
			c-0.059-8.783,6.999-15.928,15.756-15.949c8.78-0.022,15.848,7.06,15.83,15.857C129.161,115.016,122.106,121.979,113.256,121.925z
			 M192.626,133.04c8.83-86.806,136.313,43.021,185.979,33.365c-5.836,11.453-11.236,22.402-19.174,31.774
			c7.938-9.372-15.117,17.85,0,0C307.287,259.749,184.021,217.616,192.626,133.04z"/>
	</g>
</g>
</svg>
